<svg id="Layer_1" data-name="Layer 1" xmlns="http://www.w3.org/2000/svg" viewBox="0 0 168.1 29.95"><defs><style>.cls-1{fill:white;}</style></defs><title>b&amp;amp;cotab</title><path class="cls-1" d="M290.72,383.51V354.06h22.8q4.69,0,6.85,1.88a5.81,5.81,0,0,1,2.15,4.52V362a6,6,0,0,1-.88,3.38,5.53,5.53,0,0,1-1.87,1.87,6.93,6.93,0,0,1,3.5,2.43,7.37,7.37,0,0,1,1.3,4.52v.9a13.35,13.35,0,0,1-.35,3,7,7,0,0,1-1.33,2.73,6.73,6.73,0,0,1-2.75,2,12,12,0,0,1-4.62.75Zm9.75-18.1h10a2.38,2.38,0,0,0,1.8-.55,2.14,2.14,0,0,0,.5-1.5v-.5a2,2,0,0,0-.5-1.5,3.72,3.72,0,0,0-2.25-.45h-9.55Zm0,11.25h12a2.63,2.63,0,0,0,1.8-.47,2.05,2.05,0,0,0,.5-1.53v-.9a1.79,1.79,0,0,0-.65-1.47,3.68,3.68,0,0,0-2.25-.53H300.47Z" transform="translate(-290.72 -354.06)"/><path class="cls-1" d="M364.52,384a28,28,0,0,1-3.78-.22,10.08,10.08,0,0,1-3-.9,16.1,16.1,0,0,1-3-1.93,13.13,13.13,0,0,1-2.15,1.28,12.16,12.16,0,0,1-3,.9,26.79,26.79,0,0,1-4.65.32h-5.75a9.05,9.05,0,0,1-4-.75,6,6,0,0,1-2.3-1.85,6.71,6.71,0,0,1-1.05-2.3,9.73,9.73,0,0,1-.27-2.1v-4.2a7.63,7.63,0,0,1,1.47-4.92,7.46,7.46,0,0,1,4.23-2.48,5,5,0,0,1-.88-1.45,6.55,6.55,0,0,1-.47-2.65v-.7a5.76,5.76,0,0,1,1.8-4.2q1.8-1.8,5.85-1.8h7.75a11.08,11.08,0,0,1,4.92.85,4.35,4.35,0,0,1,2.15,2.13,6.81,6.81,0,0,1,.53,2.62v2a2.22,2.22,0,0,1-.55,1.55,2.07,2.07,0,0,1-1.6.6h-6.9v-1.2a2.09,2.09,0,0,0-.38-1.32,1.66,1.66,0,0,0-1.37-.48h-1.2c-.8,0-1.2.34-1.2,1,0,1.14.71,2.2,2.15,3.2,1.06.74,2.11,1.49,3.12,2.25s2.08,1.64,3.18,2.6c.7.6,1.29,1.15,1.77,1.63l.88.87.5-.35v-6.9l10.05.7V370a5.49,5.49,0,0,1-.28,1.85,4.4,4.4,0,0,1-1.12,1.65,8.59,8.59,0,0,1-1.75,1.25c-.8.47-1.52.85-2.15,1.15a13.56,13.56,0,0,0,2.82,1.68,15.76,15.76,0,0,0,2.85,1,14.35,14.35,0,0,0,2,.35l-.6,4.6a14.36,14.36,0,0,1-2,.38A21.2,21.2,0,0,1,364.52,384Zm-21.3-7.45h4.9a5.23,5.23,0,0,0,1.4-.12,1.39,1.39,0,0,0,.4-.18c-.7-.7-1.57-1.46-2.6-2.3s-2-1.58-3-2.25a6.13,6.13,0,0,0-1-.55,2.31,2.31,0,0,0-.87-.2q-1.2,0-1.2,1.65v1.95a2.25,2.25,0,0,0,.42,1.58A2.17,2.17,0,0,0,343.22,376.56Z" transform="translate(-290.72 -354.06)"/><path class="cls-1" d="M385.42,383.51q-5.35,0-7.75-2.35c-1.6-1.56-2.4-4.1-2.4-7.6v-9.15q0-5.4,2.65-7.87t7.5-2.48H400a27.88,27.88,0,0,1,5.27.38c1.22.25,1.83.51,1.83.77l-1.55,6.25c-.84-.1-2.46-.2-4.88-.32s-5.46-.18-9.12-.18H389a4.38,4.38,0,0,0-3.18.88,3.76,3.76,0,0,0-.82,2.67v8.55a4.2,4.2,0,0,0,.72,2.63c.49.62,1.58.92,3.28.92h2.05c4.76,0,8.4-.05,10.9-.17a32.21,32.21,0,0,0,4.5-.38l3,5.4c0,.17-.35.42-1,.75a13.06,13.06,0,0,1-3.45.9,43.27,43.27,0,0,1-6.72.4Z" transform="translate(-290.72 -354.06)"/><path class="cls-1" d="M420.67,383.51a10.09,10.09,0,0,1-4.95-.95,4.52,4.52,0,0,1-2.18-2.62,13,13,0,0,1-.52-3.88v-7.55a12,12,0,0,1,.55-3.77,4.73,4.73,0,0,1,2.17-2.65,9.8,9.8,0,0,1,4.93-1h13.9a9.76,9.76,0,0,1,4.92,1,4.66,4.66,0,0,1,2.15,2.65,12.58,12.58,0,0,1,.53,3.77v7.55a13,13,0,0,1-.53,3.88,4.54,4.54,0,0,1-2.15,2.62,9.91,9.91,0,0,1-4.92.95Zm4-6.3h5.95c1.6,0,2.38-.66,2.35-2v-5.8a2,2,0,0,0-.53-1.5,2.64,2.64,0,0,0-1.82-.5h-5.9a2.73,2.73,0,0,0-1.85.5,1.93,1.93,0,0,0-.55,1.5v5.8C422.28,376.55,423.07,377.21,424.67,377.21Z" transform="translate(-290.72 -354.06)"/><path class="cls-1" d="M453.72,383.51q-5.06,0-5.05-4.3a3.84,3.84,0,0,1,1.27-3.32,8.33,8.33,0,0,1,7.65,0,3.91,3.91,0,0,1,1.23,3.32Q458.82,383.52,453.72,383.51Z" transform="translate(-290.72 -354.06)"/></svg>